<?xml version="1.0" encoding="utf-8"?>
<!-- Generator: Adobe Illustrator 23.0.1, SVG Export Plug-In . SVG Version: 6.00 Build 0)  -->
<svg version="1.1" id="Layer_1" xmlns="http://www.w3.org/2000/svg" xmlns:xlink="http://www.w3.org/1999/xlink" x="0px" y="0px"
	 viewBox="0 0 291 164" style="enable-background:new 0 0 291 164;" xml:space="preserve">
<style type="text/css">
	.st0{fill:#FFFFFF;}
</style>
<g>
	<g>
		<path class="st0" d="M16.37,86.86V76.84h6.17V36.43h-6.17V26.42h24.13c2.86,0,5.35,0.62,7.47,1.86c2.12,1.24,3.77,2.99,4.96,5.27
			c1.18,2.27,1.78,4.99,1.78,8.16v0.86c0,2.76-0.4,5.02-1.21,6.78c-0.8,1.76-1.75,3.11-2.85,4.06c-1.1,0.95-2.13,1.63-3.12,2.03
			v1.55c0.98,0.35,2.05,0.99,3.22,1.94c1.16,0.95,2.15,2.32,2.98,4.1c0.83,1.79,1.24,4.12,1.24,6.99v0.86c0,3.34-0.6,6.2-1.81,8.59
			c-1.21,2.39-2.87,4.22-4.99,5.48c-2.12,1.27-4.59,1.9-7.41,1.9H16.37z M31.38,51.28h8.18c1.83,0,3.34-0.6,4.52-1.81
			c1.18-1.21,1.78-2.88,1.78-5.01V43.6c0-2.19-0.58-3.87-1.74-5.05c-1.16-1.18-2.68-1.77-4.56-1.77h-8.18V51.28z M31.38,76.5h8.31
			c1.92,0,3.47-0.6,4.66-1.81c1.18-1.21,1.78-2.94,1.78-5.18v-0.86c0-2.25-0.58-3.97-1.74-5.18c-1.16-1.21-2.73-1.81-4.69-1.81
			h-8.31V76.5z"/>
		<path class="st0" d="M62.14,86.86V26.42h20.2c2.92,0,5.47,0.66,7.64,1.99c2.17,1.33,3.85,3.19,5.05,5.61
			c1.2,2.42,1.79,5.27,1.79,8.55v1.04c0,3.63-0.66,6.56-1.99,8.81c-1.33,2.24-2.97,3.89-4.92,4.92v1.55
			c1.77,0.12,3.15,0.91,4.12,2.37c0.97,1.47,1.46,3.41,1.46,5.83v19.77h-8.77V68.72c0-1.38-0.28-2.5-0.83-3.37
			c-0.55-0.86-1.47-1.3-2.76-1.3H70.92v22.79H62.14z M70.92,53.7h10.5c2.08,0,3.71-0.73,4.88-2.2c1.17-1.47,1.76-3.41,1.76-5.83
			v-0.86c0-2.42-0.58-4.36-1.73-5.83c-1.15-1.47-2.79-2.2-4.92-2.2h-10.5V53.7z"/>
		<path class="st0" d="M104.14,86.86V26.42h16.68l9.24,52.67h1.2V26.42h8.64v60.44h-16.68l-9.24-52.67h-1.2v52.67H104.14z"/>
		<path class="st0" d="M166.73,88.06c-5.85,0-10.5-2.09-13.95-6.26c-3.46-4.17-5.18-10.15-5.18-17.92V49.38
			c0-7.77,1.73-13.74,5.18-17.92c3.46-4.17,8.11-6.26,13.95-6.26s10.5,2.09,13.95,6.26c3.46,4.17,5.18,10.15,5.18,17.92v14.51
			c0,7.77-1.73,13.74-5.18,17.92C177.23,85.98,172.58,88.06,166.73,88.06z M166.73,77.88c3.28,0,5.82-1.24,7.64-3.71
			c1.82-2.47,2.72-5.79,2.72-9.93v-15.2c0-4.14-0.91-7.45-2.72-9.93c-1.82-2.47-4.36-3.71-7.64-3.71c-3.23,0-5.77,1.24-7.61,3.71
			c-1.84,2.48-2.76,5.78-2.76,9.93v15.2c0,4.14,0.92,7.46,2.76,9.93C160.96,76.64,163.5,77.88,166.73,77.88z"/>
	</g>
	<g>
		<path class="st0" d="M16.37,137.91V93.72h13.55v18.25H56.6V93.72h13.55v44.19H56.6v-18.37H29.91v18.37H16.37z"/>
		<path class="st0" d="M111.08,138.79c-8.92,0-16.01-1.52-21.28-4.58c-5.27-3.05-7.9-7.42-7.9-13.1v-10.61
			c0-5.68,2.63-10.05,7.9-13.1c5.27-3.05,12.36-4.58,21.28-4.58s16.01,1.53,21.28,4.58c5.27,3.05,7.9,7.42,7.9,13.1v10.61
			c0,5.68-2.63,10.05-7.9,13.1C127.09,137.27,120,138.79,111.08,138.79z M111.08,131.34c5,0,8.88-0.9,11.65-2.71
			c2.77-1.81,4.15-4.23,4.15-7.26v-11.11c0-3.03-1.39-5.45-4.15-7.26c-2.77-1.81-6.65-2.71-11.65-2.71c-4.93,0-8.8,0.91-11.6,2.71
			c-2.8,1.81-4.21,4.23-4.21,7.26v11.11c0,3.03,1.4,5.45,4.21,7.26C102.28,130.44,106.15,131.34,111.08,131.34z"/>
		<path class="st0" d="M179.58,138.79c-8.92,0-16.01-1.52-21.28-4.58c-5.27-3.05-7.9-7.42-7.9-13.1v-10.61
			c0-5.68,2.63-10.05,7.9-13.1c5.27-3.05,12.36-4.58,21.28-4.58s16.01,1.53,21.28,4.58c5.27,3.05,7.9,7.42,7.9,13.1v10.61
			c0,5.68-2.63,10.05-7.9,13.1C195.59,137.27,188.5,138.79,179.58,138.79z M179.58,131.34c5,0,8.88-0.9,11.65-2.71
			c2.77-1.81,4.15-4.23,4.15-7.26v-11.11c0-3.03-1.39-5.45-4.15-7.26c-2.77-1.81-6.65-2.71-11.65-2.71c-4.93,0-8.8,0.91-11.6,2.71
			c-2.8,1.81-4.21,4.23-4.21,7.26v11.11c0,3.03,1.4,5.45,4.21,7.26C170.78,130.44,174.65,131.34,179.58,131.34z"/>
		<path class="st0" d="M216.26,137.91v-7.32h9.32v-29.55h-9.32v-7.32h29.18c9.53,0,16.77,1.51,21.74,4.51
			c4.97,3.01,7.45,7.48,7.45,13.42v8.33c0,5.93-2.48,10.41-7.45,13.42c-4.97,3.01-12.21,4.51-21.74,4.51H216.26z M238.96,130.33
			h6.69c5.4,0,9.36-0.88,11.86-2.65c2.5-1.77,3.75-4.25,3.75-7.45v-8.84c0-3.24-1.25-5.73-3.75-7.48c-2.5-1.75-6.45-2.62-11.86-2.62
			h-6.69V130.33z"/>
	</g>
</g>
</svg>
