<?xml version="1.0" encoding="UTF-8" standalone="no"?>
<!-- Generator: Adobe Illustrator 23.0.1, SVG Export Plug-In . SVG Version: 6.00 Build 0)  -->

<svg
   version="1.1"
   id="Layer_1"
   x="0px"
   y="0px"
   viewBox="0 0 258.26001 113.59"
   xml:space="preserve"
   width="258.26001"
   height="113.59"
   xmlns="http://www.w3.org/2000/svg"
   xmlns:svg="http://www.w3.org/2000/svg"><defs
   id="defs9" />&#10;<g
   id="g9"
   transform="translate(-16.37,-25.2)">&#10;	<g
   id="g4">&#10;		<path
   d="M 16.37,86.86 V 76.84 h 6.17 V 36.43 H 16.37 V 26.42 H 40.5 c 2.86,0 5.35,0.62 7.47,1.86 2.12,1.24 3.77,2.99 4.96,5.27 1.18,2.27 1.78,4.99 1.78,8.16 v 0.86 c 0,2.76 -0.4,5.02 -1.21,6.78 -0.8,1.76 -1.75,3.11 -2.85,4.06 -1.1,0.95 -2.13,1.63 -3.12,2.03 v 1.55 c 0.98,0.35 2.05,0.99 3.22,1.94 1.16,0.95 2.15,2.32 2.98,4.1 0.83,1.79 1.24,4.12 1.24,6.99 v 0.86 c 0,3.34 -0.6,6.2 -1.81,8.59 -1.21,2.39 -2.87,4.22 -4.99,5.48 -2.12,1.27 -4.59,1.9 -7.41,1.9 H 16.37 Z M 31.38,51.28 h 8.18 c 1.83,0 3.34,-0.6 4.52,-1.81 1.18,-1.21 1.78,-2.88 1.78,-5.01 V 43.6 c 0,-2.19 -0.58,-3.87 -1.74,-5.05 -1.16,-1.18 -2.68,-1.77 -4.56,-1.77 h -8.18 z m 0,25.22 h 8.31 c 1.92,0 3.47,-0.6 4.66,-1.81 1.18,-1.21 1.78,-2.94 1.78,-5.18 v -0.86 c 0,-2.25 -0.58,-3.97 -1.74,-5.18 -1.16,-1.21 -2.73,-1.81 -4.69,-1.81 H 31.39 V 76.5 Z"
   id="path1" />&#10;		<path
   d="M 62.14,86.86 V 26.42 h 20.2 c 2.92,0 5.47,0.66 7.64,1.99 2.17,1.33 3.85,3.19 5.05,5.61 1.2,2.42 1.79,5.27 1.79,8.55 v 1.04 c 0,3.63 -0.66,6.56 -1.99,8.81 -1.33,2.24 -2.97,3.89 -4.92,4.92 v 1.55 c 1.77,0.12 3.15,0.91 4.12,2.37 0.97,1.47 1.46,3.41 1.46,5.83 V 86.86 H 86.72 V 68.72 c 0,-1.38 -0.28,-2.5 -0.83,-3.37 -0.55,-0.86 -1.47,-1.3 -2.76,-1.3 H 70.92 V 86.84 H 62.14 Z M 70.92,53.7 h 10.5 c 2.08,0 3.71,-0.73 4.88,-2.2 1.17,-1.47 1.76,-3.41 1.76,-5.83 v -0.86 c 0,-2.42 -0.58,-4.36 -1.73,-5.83 -1.15,-1.47 -2.79,-2.2 -4.92,-2.2 H 70.91 V 53.7 Z"
   id="path2" />&#10;		<path
   d="M 104.14,86.86 V 26.42 h 16.68 l 9.24,52.67 h 1.2 V 26.42 h 8.64 v 60.44 h -16.68 l -9.24,-52.67 h -1.2 v 52.67 z"
   id="path3" />&#10;		<path
   d="m 166.73,88.06 c -5.85,0 -10.5,-2.09 -13.95,-6.26 -3.46,-4.17 -5.18,-10.15 -5.18,-17.92 v -14.5 c 0,-7.77 1.73,-13.74 5.18,-17.92 3.46,-4.17 8.11,-6.26 13.95,-6.26 5.84,0 10.5,2.09 13.95,6.26 3.46,4.17 5.18,10.15 5.18,17.92 v 14.51 c 0,7.77 -1.73,13.74 -5.18,17.92 -3.45,4.17 -8.1,6.25 -13.95,6.25 z m 0,-10.18 c 3.28,0 5.82,-1.24 7.64,-3.71 1.82,-2.47 2.72,-5.79 2.72,-9.93 v -15.2 c 0,-4.14 -0.91,-7.45 -2.72,-9.93 -1.82,-2.47 -4.36,-3.71 -7.64,-3.71 -3.23,0 -5.77,1.24 -7.61,3.71 -1.84,2.48 -2.76,5.78 -2.76,9.93 v 15.2 c 0,4.14 0.92,7.46 2.76,9.93 1.84,2.47 4.38,3.71 7.61,3.71 z"
   id="path4" />&#10;	</g>&#10;	<g
   id="g8">&#10;		<path
   d="M 16.37,137.91 V 93.72 h 13.55 v 18.25 H 56.6 V 93.72 h 13.55 v 44.19 H 56.6 V 119.54 H 29.91 v 18.37 z"
   id="path5" />&#10;		<path
   d="m 111.08,138.79 c -8.92,0 -16.01,-1.52 -21.28,-4.58 -5.27,-3.05 -7.9,-7.42 -7.9,-13.1 V 110.5 c 0,-5.68 2.63,-10.05 7.9,-13.1 5.27,-3.05 12.36,-4.58 21.28,-4.58 8.92,0 16.01,1.53 21.28,4.58 5.27,3.05 7.9,7.42 7.9,13.1 v 10.61 c 0,5.68 -2.63,10.05 -7.9,13.1 -5.27,3.06 -12.36,4.58 -21.28,4.58 z m 0,-7.45 c 5,0 8.88,-0.9 11.65,-2.71 2.77,-1.81 4.15,-4.23 4.15,-7.26 v -11.11 c 0,-3.03 -1.39,-5.45 -4.15,-7.26 -2.77,-1.81 -6.65,-2.71 -11.65,-2.71 -4.93,0 -8.8,0.91 -11.6,2.71 -2.8,1.81 -4.21,4.23 -4.21,7.26 v 11.11 c 0,3.03 1.4,5.45 4.21,7.26 2.8,1.81 6.67,2.71 11.6,2.71 z"
   id="path6" />&#10;		<path
   d="m 179.58,138.79 c -8.92,0 -16.01,-1.52 -21.28,-4.58 -5.27,-3.05 -7.9,-7.42 -7.9,-13.1 V 110.5 c 0,-5.68 2.63,-10.05 7.9,-13.1 5.27,-3.05 12.36,-4.58 21.28,-4.58 8.92,0 16.01,1.53 21.28,4.58 5.27,3.05 7.9,7.42 7.9,13.1 v 10.61 c 0,5.68 -2.63,10.05 -7.9,13.1 -5.27,3.06 -12.36,4.58 -21.28,4.58 z m 0,-7.45 c 5,0 8.88,-0.9 11.65,-2.71 2.77,-1.81 4.15,-4.23 4.15,-7.26 v -11.11 c 0,-3.03 -1.39,-5.45 -4.15,-7.26 -2.77,-1.81 -6.65,-2.71 -11.65,-2.71 -4.93,0 -8.8,0.91 -11.6,2.71 -2.8,1.81 -4.21,4.23 -4.21,7.26 v 11.11 c 0,3.03 1.4,5.45 4.21,7.26 2.8,1.81 6.67,2.71 11.6,2.71 z"
   id="path7" />&#10;		<path
   d="m 216.26,137.91 v -7.32 h 9.32 v -29.55 h -9.32 v -7.32 h 29.18 c 9.53,0 16.77,1.51 21.74,4.51 4.97,3.01 7.45,7.48 7.45,13.42 v 8.33 c 0,5.93 -2.48,10.41 -7.45,13.42 -4.97,3.01 -12.21,4.51 -21.74,4.51 z m 22.7,-7.58 h 6.69 c 5.4,0 9.36,-0.88 11.86,-2.65 2.5,-1.77 3.75,-4.25 3.75,-7.45 v -8.84 c 0,-3.24 -1.25,-5.73 -3.75,-7.48 -2.5,-1.75 -6.45,-2.62 -11.86,-2.62 h -6.69 z"
   id="path8" />&#10;	</g>&#10;</g>&#10;</svg>
