<?xml version="1.0" encoding="utf-8"?>
<!-- Generator: Adobe Illustrator 23.0.1, SVG Export Plug-In . SVG Version: 6.00 Build 0)  -->
<svg version="1.1" id="Layer_1" xmlns="http://www.w3.org/2000/svg" xmlns:xlink="http://www.w3.org/1999/xlink" x="0px" y="0px"
	 viewBox="0 0 1103 173" style="enable-background:new 0 0 1103 173;" xml:space="preserve">
<style type="text/css">
	.st0{opacity:0.1091;fill:#FFFFFF;}
</style>
<g>
	<g>
		<g>
			<path class="st0" d="M42.49,93.8c45.83-0.57,91.67-0.8,137.51-1.15c39.53-0.3,79.07-0.54,118.6-0.75
				c88.92-0.46,177.84-0.66,266.77-0.63c174.42,0.05,348.83,1.05,523.24,2.9c2.72,0.03-2.77-4.26-2.46-3.99
				c-2.17-1.82-4.38-3.57-6.64-5.26c-1.12-1.02-2.39-1.78-3.79-2.3c-13.06-3.12-26.14-6.2-39.22-9.24
				c-9.43-2.69-18.86-5.37-28.28-8.06c-23.29-6.33-46.93-11.14-70.79-14.7c-21.43-3.2-43.09-4.79-64.71-5.98
				c-20.37-1.13-40.78-1.36-61.18-1.41c-40.56-0.11-81.13,1.31-121.64,3.02c-43.12,1.82-86.21,4.29-129.28,7
				C399.69,63.36,239.02,77.22,78.36,90.74c-2.32,0.2,1.81,3.31,1.75,3.26c1.68,1.33,3.42,2.6,5.19,3.8
				c0.89,0.77,1.9,1.28,3.02,1.53c10.94,1.88,21.84,3.99,32.69,6.35c14.12,2.78,28.15,6.01,42.07,9.68
				c20.64,4.4,41.4,8.22,62.28,11.28c39.98,5.85,80.28,9.15,120.57,11.99c33.4,2.36,66.81,4.48,100.21,6.84
				c38.75,2.75,77.46,5.98,116.13,9.65c2.71,0.26-2.51-4.38-2.15-4.03c-2-1.88-4.06-3.7-6.17-5.46c-1.04-1.05-2.23-1.86-3.57-2.42
				c-32.09-2.84-64.19-5.35-96.34-7.41c-35.96-2.31-71.96-4-107.96-5.57c-34.07-1.49-68.18-2.67-102.16-5.58
				c-11.07-0.85-22.1-2.01-33.11-3.49c-15.78-2.68-31.56-5.35-47.34-8.03c-9.19-2.02-18.38-4.04-27.57-6.06
				c-19.26-5.22-38.45-10.66-57.58-16.34c3.32,2.87,6.65,5.73,9.97,8.6c160.55-13.49,321.1-27.14,481.9-37.32
				c79.48-5.03,159.07-9.54,238.71-11.17c40-0.82,80.19-1.12,120.05,2.72c10.68,0.9,21.31,2.19,31.9,3.87
				c11.81,1.65,23.48,3.99,35,7.04c13.18,3.01,26.24,6.5,39.17,10.47c18.04,5.88,35.89,12.28,53.54,19.22
				c-4.3-3.85-8.59-7.7-12.89-11.55c-174.45-1.81-348.91-2.77-523.37-2.78c-85.65-0.01-171.3,0.21-256.95,0.64
				c-42.84,0.22-85.68,0.49-128.51,0.82c-19.77,0.15-39.55,0.32-59.32,0.49c-13.19,0.11-26.39,0.25-39.58,0.4
				c-12.57,0.08-25.12-0.25-37.67-0.97c-2.68-0.11,2.39,4.38,2.2,4.18c2.05,1.99,4.16,3.92,6.32,5.79
				C39.89,92.3,41.11,93.17,42.49,93.8z"/>
			<path class="st0" d="M43.67,105.44c23.03,0.01,46.06-0.31,69.09-0.53c23.07-0.22,46.13-0.4,69.2-0.57
				c39.53-0.3,79.06-0.54,118.59-0.74c88.91-0.45,177.83-0.65,266.74-0.62c174.4,0.06,348.8,1.07,523.2,2.93
				c1.99,0.02-0.32-2.79-0.55-3.11c-1.08-1.38-2.21-2.71-3.41-3.99c-0.57-0.8-1.3-1.37-2.19-1.72c-17.35-4.67-34.49-10.01-51.42-16
				c-8.63-2.41-17.27-4.82-25.9-7.23c-16.57-4.28-33.2-8.32-49.88-12.14c-7.58-1.25-15.15-2.5-22.73-3.74
				c-21.41-3.26-43.02-4.98-64.62-6.27c-20.6-1.23-41.25-1.56-61.88-1.67c-40.66-0.22-81.33,1.14-121.94,2.83
				c-43.15,1.79-86.27,4.27-129.37,6.99C395.65,69.99,234.97,83.89,74.29,97.42c-0.59,0.05-1.04,0.75-0.96,1.29
				c0.1,0.71,1.22,1.38,1.85,1.56c15,4.55,30.07,8.86,45.21,12.92c14.27,4.19,28.72,7.6,43.37,10.24
				c8.42,1.99,16.84,3.98,25.27,5.98c12.34,2.64,24.74,4.9,37.21,6.78c40.23,6.46,80.86,10.27,121.46,13.51
				c33.49,2.67,67.01,4.98,100.51,7.49c38.64,2.9,77.24,6.11,115.8,9.81c1.99,0.19-0.2-2.84-0.38-3.1
				c-0.99-1.41-2.05-2.77-3.16-4.08c-0.52-0.81-1.21-1.41-2.07-1.78c-61.26-5.52-122.61-9.47-184.02-12.94
				c-30.82-1.74-61.66-3.34-92.43-5.81c-14.52-1.39-29.03-2.78-43.55-4.17c-7.8-1.05-15.6-2.1-23.4-3.15
				c-17.62-2.31-34.99-5.81-52.13-10.52c-29.71-6.53-59.04-14.49-88-23.89c0.3,0.95,0.59,1.9,0.89,2.86
				C233.1,87.18,390.43,73.56,548,63.47c39.68-2.54,79.38-4.92,119.1-6.79c40.26-1.9,80.57-3.54,120.88-3.93
				c37.67-0.37,75.33,0.07,112.87,3.54c10.92,0.89,21.79,2.14,32.63,3.76c11.95,1.86,23.87,3.94,35.74,6.24
				c21.54,3.59,42.56,9.31,63.07,17.17c19.58,7.01,38.98,14.49,58.19,22.45c-2.05-2.94-4.1-5.88-6.15-8.81
				c-174.4-1.83-348.81-2.81-523.22-2.84c-85.62-0.02-171.25,0.19-256.87,0.62c-42.83,0.21-85.65,0.48-128.48,0.81
				c-19.77,0.15-39.54,0.3-59.3,0.48c-13.12,0.19-26.24,0.28-39.36,0.28c-13.28,0.88-26.55,0.72-39.8-0.47
				c-2.06-0.11,0.4,2.99,0.59,3.26c1.11,1.49,2.29,2.93,3.52,4.32C42,104.39,42.75,105.02,43.67,105.44z"/>
			<path class="st0" d="M36.23,86.43c22.69-0.47,45.38-0.32,68.08-0.51c23.07-0.2,46.13-0.4,69.2-0.57
				c39.54-0.3,79.07-0.55,118.61-0.76c88.93-0.46,177.86-0.68,266.79-0.66c174.43,0.03,348.86,1.02,523.28,2.85
				c-0.5-1.38-1.41-2.47-2.73-3.27c-2.82-2.39-5.69-4.71-8.61-6.98c-3.61-2.88-7.25-5.71-10.93-8.49c-2.47-2.06-5.1-3.88-7.89-5.47
				c-7.44-2.28-14.87-4.55-22.31-6.83c-12-4.91-24.21-9.19-36.64-12.83c-8.16-2.68-16.39-5.12-24.69-7.32
				c-11.56-3.13-23.03-6.55-34.41-10.26c5.51,6.04,11.01,12.08,16.52,18.12c-7.96-12.69-15.93-25.37-23.89-38.06
				c-0.27,0.22-0.55,0.43-0.82,0.65c-8.86,11.22-17.72,22.44-26.59,33.66c1.28-0.57,2.56-1.15,3.84-1.72
				c-8.31,2.37-16.62,4.74-24.92,7.11c0.38-0.02,0.77-0.04,1.15-0.07c-11.22,1.01-22.46,1.33-33.7,0.97
				c-6.96-0.1-13.92-0.19-20.89-0.28c-17.29-0.22-34.57-0.26-51.86-0.05c-33.69,0.41-67.37,1.57-101.03,3.06
				c-66.17,2.93-132.29,7.16-198.36,11.84C342.25,69.86,211.23,81,80.21,92.01c0.61,1.49,1.63,2.68,3.05,3.57
				c3.11,2.66,6.27,5.27,9.48,7.81c3.97,3.23,7.98,6.4,12.03,9.54c2.72,2.3,5.61,4.37,8.66,6.19c11.59,2.21,22.77,5.66,33.54,10.36
				c11.29,4.31,22.48,8.88,33.56,13.71c-0.28-0.13-0.55-0.25-0.83-0.38c5.41,3.3,10.83,6.61,16.24,9.91
				c-0.22-0.21-0.44-0.41-0.66-0.62c1.33,1.88,2.66,3.76,3.98,5.63c0.26-0.17,0.52-0.35,0.79-0.52
				c9.34-8.71,18.68-17.41,28.02-26.12c-8.62,3.96-17.24,7.91-25.86,11.87c18.49-10.82,37.98-16.15,58.49-16.01
				c11.74-0.88,23.47-0.7,35.21,0.54c-0.35-0.02-0.7-0.04-1.06-0.07c44.91,3.26,89.82,6.46,134.74,9.64
				c42.18,2.99,84.31,6.4,126.41,10.36c-0.41-1.39-1.25-2.52-2.51-3.38c-3.77-3.55-7.61-7.01-11.53-10.39
				c-3.87-3.43-7.82-6.77-11.84-10.03c-1.02-1.13-2.25-1.81-3.69-2.03c-52.14-4.25-104.32-7.54-156.57-10.03
				c-13.41-0.64-26.81-1.24-40.22-1.82c-13.76-0.63-27.52-1.14-41.28-1.53c-15.31-0.78-30.52,0.12-45.64,2.7
				c-19.95,3.19-34.43,13.8-43.45,31.81c9.45-4.19,18.9-8.38,28.36-12.58c-16.9-0.52-33.34-3.28-49.33-8.28
				c-13.05-3.54-26.06-7.26-39.01-11.15c0.31,0.09,0.62,0.18,0.92,0.27c-19.51-6.47-39.11-12.69-58.78-18.67
				c11.07,9.04,22.15,18.08,33.22,27.12c137.39-11.48,274.8-22.99,412.37-32.16c65.81-4.39,131.65-8.3,197.54-11.2
				c36.67-1.61,73.37-2.85,110.07-3.38c6.83-0.07,13.65-0.2,20.48-0.38c10.71,0,21.38-0.73,32.01-2.21
				c8.93-3.06,17.87-6.12,26.8-9.18C940.5,45.6,944.72,27.09,926.6,5.4c-4.28,10.73-8.56,21.46-12.83,32.18
				c12.58,3.3,25.25,6.19,38.01,8.68c11.71,2.28,23.31,4.98,34.81,8.11c13.14,3.18,26.1,6.99,38.88,11.43
				c18.57,6.8,37.1,13.72,55.58,20.75c-10.06-8.07-20.11-16.14-30.17-24.2c-174.52-1.72-349.04-2.6-523.57-2.52
				c-85.68,0.04-171.36,0.29-257.04,0.77c-42.85,0.24-85.7,0.53-128.55,0.88c-19.78,0.16-39.56,0.35-59.34,0.51
				C69.28,62.17,56.18,62.17,43.09,62c-12.12-0.86-24.26-1.39-36.41-1.6c0.41,1.4,1.24,2.53,2.51,3.4
				c3.77,3.57,7.61,7.06,11.52,10.47c3.87,3.45,7.82,6.82,11.84,10.11C33.56,85.52,34.79,86.2,36.23,86.43z"/>
			<path class="st0" d="M36.62,92.25c22.72-0.25,45.44-0.2,68.16-0.4c23.07-0.21,46.13-0.4,69.2-0.57
				c39.54-0.3,79.07-0.55,118.61-0.75c88.93-0.46,177.85-0.67,266.78-0.64c174.43,0.04,348.85,1.04,523.27,2.88
				c-0.2-1.21-0.83-2.2-1.89-2.96c-2.11-2.15-4.28-4.25-6.5-6.29c-2.73-2.59-5.51-5.14-8.32-7.64c-1.86-1.86-3.9-3.5-6.12-4.91
				c-6.42-2.12-12.84-4.24-19.27-6.36c-8.85-3.99-17.88-7.51-27.09-10.56c-4.1-2.52-8.44-3.42-13.04-2.71
				c-12.66,0.17-25.19,1.87-37.57,5.09c0.52-0.04,1.04-0.08,1.57-0.12c-12.09-0.28-24.15-1.01-36.18-2.2
				c-10.94-0.98-21.88-1.88-32.84-2.69c-20.59-1.47-41.25-2.47-61.89-2.81c-27.83-0.46-55.66-0.2-83.48,0.41
				c-76.58,1.69-153.11,6.33-229.53,11.4C372.82,70.21,225.35,82.84,77.87,95.24c0.4,1.14,1.18,1.98,2.34,2.53
				c2.42,1.7,4.88,3.33,7.39,4.89c3.1,2.01,6.23,3.96,9.39,5.87c2.13,1.46,4.39,2.67,6.78,3.62c11.03,1.99,22.01,4.26,32.92,6.83
				c10.77,2.89,21.75,4.51,32.94,4.84c5.37-0.67,10.75-1.35,16.12-2.02c10.77-0.42,21.45,0.26,32.05,2.04
				c18.86,2.46,37.7,4.96,56.62,6.94c21.57,2.26,43.2,4.08,64.82,5.74c33.6,2.58,67.21,4.84,100.82,7.29
				c38.83,2.83,77.62,6.06,116.38,9.74c-0.12-1.21-0.69-2.23-1.7-3.04c-2.81-3.17-5.7-6.27-8.68-9.3c-2.93-3.07-5.93-6.06-9.02-8.97
				c-0.79-1.04-1.78-1.64-2.99-1.8c-61.82-5.18-123.7-8.82-185.67-11.65c-30.39-1.39-60.8-2.6-91.16-4.51
				c-7.11-0.49-14.22-0.97-21.33-1.46c-7.27-0.67-14.54-1.33-21.81-2c-6.65-1.1-13.27-1.27-19.85-0.52
				c-4.5,0.42-7.59,3.64-9.27,9.64c0.43-0.21,0.86-0.42,1.29-0.63c-21.8-1.07-43.01-4.86-63.64-11.36
				c-14.63-4.09-29.21-8.33-43.76-12.71c8.63,5.64,17.27,11.27,25.9,16.91c121.06-10.14,242.12-20.28,363.29-28.95
				c59.14-4.23,118.32-8.11,177.52-11.38c63.13-3.49,126.3-6.31,189.52-7.36c-0.3,0-0.61,0.01-0.91,0.01
				c13.31-0.16,26.62-0.22,39.93-0.16c13.4,0.09,26.8,0.32,40.19,0.68c14.48,0.58,28.96,0.49,43.43-0.28
				c10.56-0.21,20.45-2.62,29.66-7.23c-1.1,0.36-2.2,0.73-3.3,1.09c15.01,2.71,29.6,6.88,43.79,12.51
				c17.98,7.03,35.91,14.19,53.79,21.48c-7.61-7.27-15.22-14.53-22.83-21.8c-174.49-1.75-348.98-2.65-523.48-2.61
				c-85.67,0.02-171.33,0.26-257,0.73c-42.85,0.23-85.69,0.52-128.54,0.86c-19.78,0.16-39.55,0.33-59.33,0.51
				c-13.12,0.17-26.24,0.22-39.36,0.15c-12.09-0.57-24.17-1.15-36.26-1.74c0.09,1.21,0.63,2.24,1.62,3.08
				c2.72,3.23,5.53,6.39,8.42,9.48c2.84,3.13,5.77,6.18,8.77,9.16C34.44,91.44,35.42,92.06,36.62,92.25z"/>
			<path class="st0" d="M42.66,90.85c13.32,1.21,26.67,1.53,40.03,0.95c9.89-0.1,19.78-0.2,29.68-0.29
				c23.07-0.21,46.13-0.4,69.2-0.57c39.53-0.3,79.07-0.54,118.6-0.74c88.92-0.45,177.84-0.65,266.76-0.62
				c174.41,0.06,348.83,1.07,523.23,2.92c1.77,0.02-0.46-2.12-0.76-2.37c-0.98-0.85-2.02-1.63-3.11-2.34
				c-1.33-0.96-2.71-1.83-4.15-2.6c-24.86-8.08-49.58-16.56-74.84-23.34c-16.04-3.98-32.15-7.64-48.33-10.99
				c-7.67-1.29-15.33-2.58-23-3.87c-41.39-6.42-83.43-7.71-125.24-7.88c-40.54-0.16-81.1,1.27-121.61,2.98
				c-43.12,1.82-86.22,4.29-129.3,7c-160.93,10.13-321.61,24-482.29,37.52c-2.19,0.18,1.34,3.1,1.41,3.16
				c1.49,1.29,3.04,2.51,4.63,3.67c0.79,0.74,1.71,1.24,2.74,1.48c12.1,2.25,24.1,4.91,36.02,7.98c13.66,3.49,27.42,6.53,41.28,9.12
				c8.85,2.01,17.71,4.01,26.56,6.02c12.33,2.35,24.7,4.43,37.12,6.23c40.02,6.11,80.3,9.7,120.66,12.64
				c33.26,2.43,66.53,4.58,99.79,6.96c38.73,2.76,77.41,6.01,116.06,9.7c2.27,0.22-1.52-3.25-1.27-3.02c-1.4-1.2-2.84-2.33-4.34-3.4
				c-0.75-0.7-1.61-1.14-2.59-1.34c-35.31-3.21-70.65-6.03-106.04-8.32c-35.86-2.31-71.74-4.2-107.62-6.18
				c-34.65-1.91-69.22-4.2-103.69-8.24c-11.74-1.3-23.43-3-35.05-5.09c-12.66-2.07-25.29-4.31-37.89-6.71
				c-9.37-2.48-18.74-4.96-28.11-7.44c-20-5.36-39.88-11.1-59.66-17.23c2.93,2.77,5.85,5.54,8.78,8.32
				c160.58-13.49,321.17-27.15,482-37.35c39.6-2.51,79.21-4.81,118.85-6.77c39.93-1.97,79.88-3.7,119.85-4.47
				c19.58-0.38,39.15-0.51,58.73-0.25c9.54,0.07,19.07,0.31,28.61,0.73c10.47,0.5,20.92,1.33,31.33,2.49
				c10.97,0.98,21.89,2.35,32.76,4.13c12.2,1.55,24.22,3.99,36.04,7.32c13.09,3.12,26.03,6.78,38.82,10.97
				c18.84,6.23,37.45,13.07,55.85,20.51c-2.67-2.44-5.35-4.88-8.02-7.32c-174.44-1.83-348.89-2.81-523.34-2.85
				c-85.64-0.02-171.29,0.19-256.93,0.61c-42.84,0.21-85.67,0.48-128.51,0.81c-19.77,0.15-39.55,0.32-59.32,0.49
				c-13.19,0.11-26.39,0.24-39.58,0.39c-13.47,1-26.83,0.15-40.08-2.53c-2.44-0.32,1.89,3.66,1.52,3.32
				c1.58,1.4,3.21,2.74,4.89,4.02C40.61,89.98,41.57,90.54,42.66,90.85z"/>
			<path class="st0" d="M35.65,84.37c22.76-0.17,45.52-0.08,68.27-0.28c23.07-0.21,46.13-0.4,69.2-0.58
				c39.54-0.3,79.07-0.55,118.61-0.76c88.93-0.46,177.86-0.68,266.78-0.66c174.43,0.04,348.86,1.02,523.28,2.85
				c-0.31-1.15-1.02-2.03-2.13-2.65c-2.27-1.83-4.59-3.59-6.96-5.3c-2.92-2.18-5.87-4.3-8.86-6.38c-2-1.58-4.15-2.91-6.44-3.99
				c-15.74-4.22-31.39-8.76-46.94-13.64c-8.62-1.55-17.24-3.1-25.86-4.64c-9.15-0.07-18.24,0.43-27.3,1.48
				c-8.4,1.31-16.79,2.62-25.19,3.94c-12.27-3.07-24.66-5.53-37.17-7.36c-6.93-0.66-13.87-1.31-20.8-1.97
				c-20.56-1.69-41.26-2-61.88-2.27c-40.78-0.53-81.58,0.67-122.33,2.24c-43.17,1.67-86.32,4.09-129.45,6.76
				C399.59,61.15,238.94,75.05,78.3,88.56c0.49,1.44,1.4,2.6,2.72,3.48c2.83,2.6,5.72,5.14,8.66,7.61c3.63,3.14,7.3,6.24,11,9.29
				c2.48,2.24,5.14,4.26,7.96,6.03c10.95,2.07,21.56,5.22,31.83,9.45c10.32,3.81,20.62,7.68,30.89,11.63
				c4.36,2.04,8.73,4.07,13.09,6.11c14.23-5.82,28.43-11.72,42.59-17.7c-1.99,0.28-3.98,0.56-5.97,0.84
				c13.5-1.92,27.02-2.41,40.56-1.48c11.19,0.31,22.36,0.99,33.52,2.05c20.96,1.57,41.92,3.2,62.89,4.64
				c40.12,2.76,80.24,5.4,120.35,8.43c-0.32-0.02-0.64-0.05-0.96-0.07c26.08,2.08,52.13,4.31,78.17,6.76
				c-0.23-1.15-0.87-2.07-1.94-2.74c-3.02-2.72-6.12-5.35-9.29-7.9c-3.13-2.6-6.32-5.11-9.59-7.53c-0.87-0.91-1.89-1.36-3.07-1.35
				c-51.75-4.32-103.56-7.69-155.43-10.27c-27.09-1.34-54.18-2.68-81.29-3.77c-7.07-0.25-14.14-0.51-21.21-0.76
				c-11.54-0.89-22.99-0.37-34.36,1.56c-20.22,2.53-10.06,0.57-35.97,11.72c7.18-0.48,14.37-0.96,21.55-1.44
				c-17.08,2.18-33.61,0.68-49.59-4.5c-12.79-3.3-25.48-6.92-38.09-10.85c0.27,0.08,0.54,0.16,0.81,0.24
				c-19.53-6.52-39.09-12.92-58.7-19.19c10.12,8.81,20.23,17.62,30.35,26.43c134.14-11.22,268.29-22.43,402.6-31.59
				c65.78-4.48,131.6-8.5,197.47-11.55c33.21-1.54,66.43-2.84,99.67-3.63c16.79-0.4,33.58-0.65,50.37-0.65
				c6.48,0.04,12.96,0.07,19.44,0.11c12.76-0.14,25.44,0.79,38.05,2.79c-0.33-0.09-0.65-0.19-0.98-0.28
				c5.08,2.15,10.15,4.3,15.23,6.44c-4.36-6.41-8.72-12.82-13.07-19.23c4.73,8.27,9.47,16.53,14.2,24.8c0.39,1.02,0.74,1,1.05-0.04
				c5.41-9.66,10.83-19.32,16.24-28.98c-5.37,4.78-10.73,9.55-16.1,14.33c13.24-4.83,26.49-9.66,39.73-14.49
				c-2.79-0.21-5.58-0.42-8.37-0.62c11.27,1.67,22.53,3.33,33.8,5c-0.48-0.13-0.95-0.25-1.43-0.38c14.21,3.22,28.12,7.4,41.74,12.54
				c13.87,4.78,27.67,9.8,41.37,15.05c-8.13-6.11-16.26-12.22-24.4-18.32C888.52,64.9,720.6,64,552.67,63.98
				c-82.37-0.01-164.75,0.19-247.12,0.59C266,64.76,226.45,65,186.9,65.29c-46.09,0.33-92.19,1.02-138.29,0.96
				c0.33,0.01,0.65,0.03,0.98,0.04c-12.62-0.65-25.24-1.16-37.87-1.53c0.23,1.16,0.88,2.07,1.94,2.75c3.03,2.73,6.13,5.37,9.31,7.94
				c3.13,2.61,6.34,5.13,9.61,7.57C33.45,83.92,34.47,84.37,35.65,84.37z"/>
			<path class="st0" d="M38.5,97.03c22.76-0.3,45.51-0.29,68.27-0.49c23.07-0.21,46.13-0.4,69.2-0.57
				c39.54-0.3,79.07-0.54,118.61-0.75c88.93-0.46,177.85-0.66,266.78-0.64c174.43,0.05,348.85,1.05,523.27,2.89
				c-0.25-1.35-0.95-2.47-2.09-3.38c-2.31-2.54-4.67-5.03-7.1-7.46c-2.98-3.08-6.01-6.12-9.07-9.12c-2.03-2.2-4.25-4.18-6.66-5.94
				c-9.4-2.73-18.57-6.05-27.53-9.96c-3.17-1.48-6.41-2.79-9.7-3.95c-5.3-1.68-10.6-3.36-15.89-5.05
				c-14.24-0.84-28.18,1.23-41.82,6.2c3.53-0.14,7.06-0.29,10.58-0.43c-11.56-0.11-23.11-0.21-34.67-0.32
				c0.51,0.03,1.01,0.06,1.52,0.09c-22.19-1.71-44.42-3.72-66.66-4.77c-17.04-0.8-34.09-1.27-51.16-1.42
				c-37.44-0.32-74.89,0.54-112.3,1.95c-69.65,2.62-139.24,6.83-208.77,11.57C362.26,75.12,221.36,87.15,80.46,98.99
				c-0.99-0.14-1.16,0.17-0.51,0.92c1.64,1.43,3.45,2.63,5.42,3.59c3.61,2.06,7.26,4.06,10.94,5.99c1.87,1.14,3.85,2.02,5.94,2.63
				c7.38,1.25,14.76,2.5,22.14,3.74c10.33,2.52,20.78,3.74,31.34,3.67c6.66,0.12,13.31,0.39,19.96,0.81
				c11.15,0.14,22.15,1.57,33.01,4.3c-0.25-0.05-0.51-0.09-0.76-0.14c7.68,1.44,15.35,2.89,23.03,4.33
				c7.63,1.12,15.26,2.23,22.89,3.35c11.35,1.53,22.75,2.76,34.14,3.95c31.3,3.26,62.69,5.63,94.08,7.92
				c58.82,4.29,117.61,8.62,176.32,14.25c-0.18-1.36-0.81-2.51-1.89-3.47c-3.08-3.73-6.24-7.39-9.49-10.98
				c-3.2-3.63-6.48-7.18-9.84-10.66c-0.83-1.19-1.9-1.94-3.23-2.27c-51.83-4.32-103.72-7.65-155.67-10.1
				c-26.67-1.26-53.34-2.3-80.01-3.51c-13.72-0.59-27.43-1.28-41.14-2.09c-14.01-0.71-27.97-2.02-41.87-3.94
				c0.27,0.03,0.54,0.07,0.82,0.1c-6.73-1.49-13.49-2.86-20.27-4.11c-12.18-3.43-22.56-0.01-31.15,10.27
				c1.19-0.61,2.38-1.22,3.57-1.83c-14.9,1.23-29.37-0.39-43.44-4.85c-14.88-3.57-29.65-7.53-44.33-11.89
				c7.27,4.38,14.53,8.75,21.8,13.13c144.02-12.07,288.04-24.24,432.25-33.78c72.58-4.8,145.21-9.14,217.91-11.8
				c33.64-1.23,67.28-2.12,100.94-2.27c20.07-0.09,40.11,0.36,60.18,0.73c7.09,0.11,14.18,0.23,21.27,0.34
				c14.72,0.57,29.17-1.12,43.35-5.05c-4.45,0.11-8.89,0.21-13.34,0.32c10.45-0.58,20.63,0.63,30.56,3.64
				c11.85,2.47,23.39,6.02,34.62,10.64c-0.23-0.08-0.45-0.16-0.68-0.24c18.15,7.35,36.23,14.85,54.25,22.5
				c-8.3-8.63-16.61-17.26-24.91-25.89c-174.49-1.75-348.99-2.65-523.49-2.6c-85.67,0.02-171.33,0.27-257,0.73
				c-42.85,0.23-85.69,0.52-128.54,0.86c-19.78,0.16-39.55,0.34-59.33,0.51c-13.11,0.17-26.22,0.22-39.34,0.15
				c-12.03-0.58-24.07-1.18-36.1-1.79c0.14,1.35,0.74,2.52,1.79,3.5c2.97,3.8,6.02,7.52,9.15,11.18c3.09,3.7,6.26,7.32,9.52,10.87
				C36.14,95.88,37.19,96.66,38.5,97.03z"/>
			<path class="st0" d="M38.76,86.27c13.48,1.56,26.99,1.96,40.53,1.2c9.91-0.11,19.81-0.2,29.72-0.29
				c23.07-0.21,46.13-0.4,69.2-0.57c39.53-0.3,79.07-0.54,118.6-0.74c88.92-0.45,177.84-0.65,266.76-0.62
				c174.42,0.06,348.83,1.07,523.23,2.93c1.51,0.02-0.15-1.86-0.44-2.11c-1.63-1.37-3.67-2.97-5.71-3.68
				c-7.57-2.69-15.16-5.32-22.77-7.9c-13.08-5.06-26.4-9.3-39.98-12.74c-12.27-3.39-24.57-6.68-36.9-9.86
				c-11.7-2.7-23.49-4.89-35.37-6.59c-45.25-7.1-91.11-8.92-136.86-9.06c-77.43-0.23-154.88,3.83-232.15,8.49
				C409.08,54.84,241.82,69.37,74.56,83.44c-0.02,0.91,0.38,1.64,1.19,2.21c1.48,1.47,3.01,2.88,4.59,4.23
				c1.94,1.74,3.91,3.43,5.92,5.07c1.32,1.28,2.81,2.31,4.45,3.11c9.68,1.55,19.4,2.74,29.17,3.55c13.61,1.02,27.07,3.18,40.36,6.46
				c21.14,4.12,42.18,8.64,63.49,11.83c39.85,5.96,79.93,9.67,120.1,12.6c33.51,2.45,67.04,4.61,100.55,7.02
				c38.73,2.78,77.42,6.04,116.07,9.74c0.47-0.09,0.68-0.37,0.63-0.84c-0.26-0.75-0.73-1.34-1.43-1.77
				c-1.4-1.25-3.51-3.28-5.48-3.46c-32.11-2.96-64.25-5.61-96.42-7.86c-35.79-2.51-71.62-4.51-107.43-6.68
				c-16.83-1.02-33.67-2.04-50.49-3.29c-6.81-0.53-13.61-1.05-20.42-1.58c-14.93-1.19-29.81-2.86-44.63-5.01
				c-16.07-1.85-32.08-4.13-48.02-6.87c-8.41-1.84-16.82-3.68-25.23-5.52c-9.97-2.26-19.94-4.53-29.91-6.79
				c-18.99-4.59-37.75-9.99-56.27-16.19c5.38,4.87,10.77,9.75,16.15,14.62c229.7-19.27,459.52-39.1,689.91-47.88
				c-0.25,0.01-0.49,0.02-0.74,0.03c42.68-1.43,85.44-2.77,128.14-1.57c10.12,0.19,20.22,0.67,30.32,1.42
				c18.11,1.37,36.04,3.88,53.8,7.5c12.52,2.02,24.75,5.26,36.68,9.73c19.03,6.27,37.81,13.2,56.35,20.79
				c-2.05-1.93-4.1-3.86-6.15-5.79c-171.15-1.8-342.3-2.79-513.46-2.87c-85.64-0.04-171.29,0.14-256.93,0.55
				c-39.54,0.19-79.08,0.42-118.62,0.7c-19.77,0.14-39.55,0.3-59.32,0.46c-13.18,0.11-26.36,0.23-39.54,0.35
				c-20.35,0.74-40.65-0.1-60.91-2.5c-0.52,0.04-0.74,0.32-0.64,0.83c0.38,0.86,0.98,1.56,1.8,2.08c1.32,1.12,2.69,2.17,4.1,3.17
				C37.01,85.71,37.83,86.12,38.76,86.27z"/>
			<path class="st0" d="M37.67,91.13c22.73-0.53,45.45-0.42,68.19-0.62c23.07-0.2,46.13-0.4,69.2-0.57
				c39.54-0.3,79.07-0.55,118.61-0.75c88.93-0.46,177.86-0.67,266.79-0.65c174.43,0.04,348.86,1.03,523.28,2.87
				c-0.53-1.52-1.49-2.77-2.87-3.74c-2.98-2.84-6-5.61-9.08-8.34c-3.81-3.44-7.66-6.84-11.54-10.2c-2.6-2.45-5.38-4.67-8.34-6.67
				c-14.84-4.28-29.15-9.9-42.94-16.87c-13.42-4.99-26.02-11.52-37.81-19.61c0.23,0.19,0.47,0.38,0.7,0.57
				c-1.81-2.56-3.62-5.12-5.42-7.69c-0.24,0.2-0.47,0.41-0.71,0.61c-7.78,8.64-15.57,17.28-23.35,25.93
				c8.1-4.94,16.21-9.88,24.31-14.82c-20.48,14.28-42.82,21.32-67.03,21.13c0.35-0.02,0.7-0.04,1.05-0.06
				c-11.14,0.07-22.27-0.12-33.39-0.57c-6.87-0.25-13.74-0.46-20.62-0.62c-17.29-0.46-34.58-0.6-51.87-0.56
				c-33.84,0.08-67.68,1.18-101.49,2.52c-69.56,2.75-139.05,7.19-208.49,12.03c-134.46,9.37-268.77,20.81-403.09,32.1
				c0.59,1.35,1.57,2.4,2.94,3.12c2.98,2.24,6.01,4.41,9.08,6.53c3.8,2.69,7.64,5.33,11.5,7.92c2.61,1.93,5.36,3.61,8.27,5.05
				c7.81,1.84,15.62,3.68,23.43,5.53c12.54,4.24,25.18,8.13,37.93,11.68c8.32,2.31,16.59,4.78,24.81,7.41
				c10.99,2.71,21.33,7.07,31.01,13.08c-4.14-7.18-8.28-14.37-12.42-21.55c4.91,10.88,9.82,21.76,14.73,32.64
				c0.21,1.15,0.56,1.19,1.04,0.13c6.36-9.95,12.72-19.9,19.08-29.86c-9.64,5.54-19.29,11.08-28.93,16.62
				c16.33-7.15,32.66-14.3,48.99-21.46c-0.37,0.09-0.73,0.19-1.1,0.28c15.53-1.92,31.07-2.05,46.62-0.38
				c13.95,1.04,27.9,2.08,41.85,3.15c20.19,1.5,40.39,2.93,60.59,4.39c45.5,3.3,90.97,6.95,136.38,11.27
				c-0.44-1.54-1.32-2.83-2.64-3.86c-3.98-4.19-8.03-8.3-12.16-12.33c-4.09-4.08-8.25-8.07-12.5-11.99c-1.05-1.3-2.35-2.17-3.9-2.59
				c-48.77-3.98-97.58-7.12-146.45-9.52c-23.45-1.15-46.93-2.53-70.4-3.07c-15.14-0.95-30.19-0.13-45.15,2.45
				c-24.86,4.47-39.52,19.38-44,44.72c10.93-5.9,21.86-11.79,32.79-17.69c-15.77-2.03-31.38-4.85-46.84-8.47
				c-12.41-2.7-24.79-5.52-37.14-8.48c-9.2-2.4-18.4-4.79-27.61-7.19c-19.51-5.94-39.06-11.74-58.66-17.39
				c10.6,7.54,21.19,15.08,31.79,22.62c140.68-11.76,281.37-23.5,422.23-32.81c69.18-4.57,138.42-8.67,207.7-11.35
				c33.52-1.3,67.04-2.28,100.58-2.61c10.17-0.04,20.35-0.11,30.52-0.21c10.38,0.02,20.76-0.31,31.13-0.98
				c7.9-1.35,15.8-2.69,23.7-4.04c20.31-4.71,33.33-16.99,39.05-36.84c-9.24,5.26-18.48,10.53-27.72,15.79
				c12.22,2.26,24.43,4.52,36.65,6.78c12.05,3.53,23.98,7.4,35.8,11.62c8.87,2.86,17.59,6.1,26.17,9.72
				c14.01,5.53,28.01,11.07,42.01,16.62c-10.61-9.65-21.22-19.3-31.84-28.94c-174.52-1.72-349.05-2.6-523.57-2.52
				c-85.68,0.04-171.36,0.29-257.04,0.77c-42.85,0.24-85.7,0.53-128.56,0.88c-19.78,0.16-39.56,0.35-59.34,0.51
				c-13.08,0.19-26.17,0.2-39.25,0.02c-12.07-0.86-24.15-1.43-36.24-1.71c0.43,1.55,1.3,2.84,2.61,3.89
				c3.95,4.23,7.97,8.38,12.08,12.46c4.06,4.12,8.2,8.16,12.41,12.12C34.83,89.82,36.13,90.7,37.67,91.13z"/>
			<path class="st0" d="M36.34,88.07c45.87,0.29,91.73-0.34,137.59-0.69c39.53-0.3,79.07-0.55,118.6-0.75
				c88.92-0.46,177.85-0.67,266.77-0.64c174.42,0.04,348.84,1.04,523.26,2.88c2.86,0.03-3.25-4.57-2.87-4.25
				c-2.42-1.98-4.89-3.9-7.41-5.76c-1.25-1.1-2.65-1.96-4.18-2.56c-12.45-3.68-25.04-6.86-37.74-9.53
				c-7.75-1.36-15.5-2.72-23.25-4.09c-15.98-3.3-31.99-6.43-48.04-9.4c-7.61-1.19-15.22-2.39-22.84-3.58
				c-41.93-6.08-84.5-7.5-126.81-7.8c-40.7-0.29-81.42,0.97-122.08,2.6c-43.15,1.74-86.28,4.18-129.39,6.87
				C397.05,61.4,236.4,75.28,75.74,88.8c0.23,1.1,0.86,1.96,1.91,2.56c2.08,1.76,4.21,3.46,6.39,5.09c2.68,2.09,5.4,4.14,8.16,6.13
				c1.84,1.52,3.83,2.8,5.97,3.83c9.9,1.99,19.79,4,29.68,6.04c9.79,2.54,19.78,3.55,29.96,3.04c16.2,1.35,32.41,2.7,48.61,4.05
				c8.24,1.1,16.48,2.2,24.72,3.31c39.48,5.12,79.15,8.31,118.85,11.09c33.31,2.33,66.64,4.45,99.94,6.87
				c35.51,2.57,70.97,5.55,106.41,8.89c2.85,0.27-2.95-4.75-2.53-4.36c-2.25-2.09-4.55-4.11-6.91-6.08
				c-1.16-1.15-2.48-2.07-3.95-2.75c-32.18-2.81-64.38-5.33-96.63-7.38c-32.87-2.09-65.76-3.76-98.65-5.35
				c-30.88-1.49-61.76-2.91-92.6-5.02c-18.28-1.25-36.57-2.6-54.81-4.29c-22.18-2.77-44.36-5.54-66.53-8.32
				C114.59,100.77,95.57,95,76.67,88.84c7.47,5.87,14.95,11.74,22.42,17.62c160.46-13.45,320.93-26.97,481.64-37
				c79.35-4.95,158.8-9.38,238.29-11.09c39.47-0.85,78.98-1.15,118.4,1.33c21,1.32,41.87,3.9,62.85,5.55
				c9.97,0.43,19.79,1.92,29.48,4.47c17.82,5.8,35.43,12.17,52.82,19.13c-4.82-4.19-9.64-8.39-14.46-12.58
				c-174.47-1.79-348.94-2.73-523.41-2.72c-85.66,0-171.31,0.23-256.97,0.67c-42.84,0.22-85.68,0.5-128.52,0.83
				c-19.78,0.15-39.55,0.32-59.33,0.5c-13.18,0.14-26.36,0.25-39.54,0.34c-12.59,0-25.15-0.58-37.69-1.73
				c-0.77-0.22-1,0.03-0.71,0.78c0.88,1.43,1.98,2.68,3.3,3.75c2.3,2.2,4.65,4.35,7.06,6.43C33.49,86.35,34.84,87.32,36.34,88.07z"
				/>
			<path class="st0" d="M42.53,86.9c13.36,0.59,26.72,0.6,40.07,0.01c9.85-0.02,19.7-0.09,29.54-0.2
				c23.07-0.23,46.14-0.4,69.21-0.58c39.53-0.29,79.07-0.54,118.6-0.74c88.92-0.45,177.85-0.65,266.77-0.61
				c174.42,0.07,348.84,1.08,523.25,2.94c1.35,0.01,0.11-1.7-0.2-1.98c-1.32-1.22-3.06-2.64-4.78-3.25
				c-17.57-6.21-35.19-12.25-52.88-18.13c-12.93-3.46-25.84-6.95-38.75-10.47c-11.87-3.45-23.9-6.28-36.08-8.48
				c-3.76-0.8-7.56-1.43-11.38-1.89c-44.89-7.37-90.48-9.03-135.9-9.12c-40.6-0.08-81.19,1.17-121.75,2.88
				c-36.76,1.55-73.5,3.55-110.23,5.77C410.48,53.2,243.21,67.72,75.95,81.8c-0.11,0.79,0.17,1.45,0.87,1.99
				c1.2,1.28,2.46,2.51,3.77,3.68c1.59,1.51,3.23,2.97,4.9,4.38c1.09,1.12,2.34,2,3.75,2.65c10.58,1.11,21.1,2.65,31.56,4.6
				c14.01,2.14,27.9,4.92,41.66,8.35c16.96,3.55,33.93,6.98,51.01,9.88c11.86,1.94,23.74,3.63,35.67,5.07
				c11.28,1.51,22.58,2.83,33.9,3.96c17.71,1.79,35.44,3.32,53.19,4.71c33.62,2.63,67.28,4.83,100.92,7.26
				c42.25,3.04,84.45,6.54,126.62,10.61c0.43-0.11,0.65-0.38,0.67-0.81c-0.13-0.66-0.48-1.18-1.06-1.57
				c-1.13-1.13-2.79-2.79-4.46-2.94c-35.24-3.3-70.51-6.21-105.83-8.69c-36.39-2.55-72.81-4.66-109.2-7.07
				c-35.61-2.36-71.22-4.95-106.64-9.38c-12.02-1.53-24-3.35-35.94-5.46c-12.61-1.95-25.12-4.38-37.54-7.31
				c-9.56-2.46-19.11-4.93-28.67-7.39c-19.72-4.62-39.18-10.14-58.39-16.56c4.43,4.23,8.86,8.47,13.29,12.7
				c157.27-13.19,314.55-26.52,472.06-36.58c79.07-5.05,158.22-9.63,237.43-11.96c36.23-1.07,72.51-1.94,108.74-0.55
				c10.06,0.28,20.11,0.88,30.13,1.8c10.28,0.54,20.47,1.81,30.56,3.81c21.32,3.28,42.22,8.48,62.7,15.61
				c19.47,6.36,38.7,13.39,57.68,21.1c-1.66-1.74-3.32-3.49-4.98-5.23c-171.16-1.81-342.33-2.81-513.5-2.9
				c-85.65-0.04-171.3,0.13-256.95,0.53c-39.54,0.19-79.08,0.42-118.63,0.7c-19.77,0.14-39.55,0.3-59.32,0.46
				c-13.2,0.09-26.4,0.21-39.6,0.38c-20.1,0.12-40.19-0.07-60.28-0.59c-0.46,0.1-0.67,0.39-0.6,0.86c0.29,0.74,0.79,1.32,1.51,1.72
				C38.3,84.77,40.58,86.85,42.53,86.9z"/>
			<path class="st0" d="M36.32,93.56c22.77-0.32,45.55-0.27,68.32-0.47c23.07-0.21,46.14-0.4,69.2-0.57
				c39.54-0.3,79.07-0.55,118.61-0.75c88.93-0.46,177.86-0.67,266.79-0.64c174.43,0.05,348.86,1.04,523.29,2.88
				c-0.32-1.42-1.09-2.61-2.29-3.56c-2.49-2.71-5.04-5.36-7.65-7.95c-3.21-3.29-6.46-6.53-9.76-9.73c-2.19-2.34-4.56-4.46-7.13-6.37
				c-13.86-4.14-27.11-9.71-39.76-16.73c-9.45-4.34-18.53-9.34-27.23-15c-0.23,0.13-0.46,0.25-0.69,0.38
				c-7.95,5.42-15.91,10.84-23.86,16.27c6.42-3.43,12.84-6.86,19.25-10.29c-13.74,4.37-27.47,8.75-41.21,13.12
				c0.72-0.07,1.44-0.14,2.15-0.21c-11.98,0.98-23.96,1.1-35.93,0.38c-10.78-0.37-21.55-0.87-32.32-1.51
				c-17.29-0.76-34.58-1.3-51.89-1.49c-37.7-0.41-75.4,0.36-113.07,1.75c-69.68,2.57-139.28,6.76-208.84,11.5
				C361.23,74.16,220.33,86.19,79.43,98.03c0.52,1.2,1.42,2.09,2.69,2.65c2.72,1.8,5.47,3.53,8.27,5.2
				c3.46,2.13,6.96,4.22,10.48,6.25c2.38,1.55,4.89,2.84,7.53,3.88c7.86,1.5,15.72,3,23.58,4.5c12.96,3.87,26.16,6.17,39.61,6.89
				c9.01,1.92,17.96,1.72,26.87-0.61c6.8-0.76,13.54-1.84,20.23-3.24c-0.27,0.03-0.55,0.06-0.82,0.09
				c6.16-0.18,12.33-0.36,18.49-0.54c6.02,1.35,12.04,2.7,18.06,4.04c6.94,1.29,13.88,2.59,20.83,3.88
				c7.16,0.87,14.31,1.74,21.47,2.61c31,3.36,62.18,5.38,93.27,7.64c55.5,4.03,110.97,8.21,166.36,13.5
				c-0.24-1.43-0.94-2.66-2.09-3.67c-3.32-3.98-6.72-7.9-10.21-11.74c-3.44-3.88-6.96-7.69-10.57-11.42
				c-0.88-1.25-2.02-2.08-3.42-2.47c-45.38-3.75-90.8-6.81-136.28-9.17c-19.89-1.04-39.79-1.95-59.69-2.89
				c-13.5-0.61-27-1.28-40.49-2.01c-13.38-0.45-26.64-1.87-39.81-4.28c0.32,0.09,0.64,0.18,0.95,0.27
				c-5.43-2.23-10.85-4.47-16.28-6.7c0.81,0.77,1.63,1.54,2.44,2.31c-1.88-2.72-3.75-5.43-5.63-8.15c-0.41-0.99-0.76-0.97-1.05,0.06
				c-5.44,9.3-10.87,18.6-16.31,27.89c5.29-5.5,10.58-11,15.87-16.51c-13.26,5.76-26.51,11.51-39.77,17.27
				c5.88-0.16,11.75-0.31,17.63-0.47c-14.75-0.9-29.5-1.8-44.24-2.7c0.55,0.09,1.1,0.18,1.65,0.26c-15-2.49-29.77-5.9-44.33-10.22
				c-14.78-4.02-29.53-8.15-44.25-12.4c9.65,5.99,19.31,11.99,28.96,17.98c147.26-12.32,294.54-24.66,442.01-34.23
				c72.61-4.71,145.28-8.84,218.01-11.35c36.63-1.27,73.25-1.92,109.9-1.87c10.28,0.17,20.56,0.14,30.83-0.11
				c3.85,0.2,7.68,0.11,11.5-0.26c7.35-0.81,14.7-1.63,22.05-2.44c8.29-1.92,16.29-4.83,23.99-8.71c-0.72,0.07-1.44,0.14-2.15,0.21
				c5.21-0.46,10.41-0.92,15.62-1.37c11.47,3.22,22.76,6.94,33.89,11.16c8.59,2.9,17.04,6.16,25.35,9.79
				c13.65,5.61,27.31,11.21,40.98,16.78c-8.94-9.21-17.89-18.41-26.83-27.62c-174.51-1.74-349.02-2.62-523.53-2.56
				c-85.68,0.03-171.35,0.28-257.02,0.75c-42.85,0.23-85.7,0.52-128.55,0.87c-19.78,0.16-39.56,0.34-59.34,0.51
				c-13.1,0.18-26.2,0.22-39.3,0.11C34.77,65,22.68,64.45,10.59,64.06c0.22,1.43,0.89,2.66,2.02,3.68
				c3.25,4.01,6.57,7.95,9.99,11.81c3.37,3.91,6.82,7.74,10.35,11.5C33.81,92.31,34.93,93.15,36.32,93.56z"/>
		</g>
	</g>
</g>
</svg>
